<svg width="32" height="33" viewBox="0 0 32 33" fill="none" xmlns="http://www.w3.org/2000/svg">
<rect width="32" height="32" transform="translate(0 0.300964)" fill="#1F2020"/>
<path d="M20.9862 26.1398C20.8792 26.1932 18.8376 27.0916 15.2268 26.9226C13.3456 26.8336 11.7141 26.4867 10.5551 26.1665L16.8048 18.9261C17.9193 19.2107 19.3547 19.4776 20.9862 19.5576C24.597 19.7355 26.6386 18.8282 26.7456 18.7749L20.9862 26.1487V26.1398ZM11.6517 12.2282C10.6264 8.76812 11.0276 6.57998 11.0543 6.46435L5.24142 13.7937C5.22359 13.9094 4.82239 16.0975 5.83876 19.5576C6.37369 21.3544 7.09585 22.8576 7.68427 23.9072L13.2565 16.142C12.7215 15.128 12.1153 13.7937 11.6517 12.2371V12.2282ZM26.1394 12.9932C25.3191 10.218 24.0353 8.16327 23.5093 7.38052L18.3383 13.9538L19.3101 18.6059C19.8896 18.6859 20.4602 18.7393 21.0397 18.7749C21.3339 18.7838 21.6281 18.7927 21.9134 18.7927C24.7129 18.7927 26.2731 18.1344 26.4425 18.0544L26.8437 17.8765C26.8793 16.9158 26.8169 15.2169 26.1483 12.9843L26.1394 12.9932ZM22.8941 6.90909C22.0115 6.57998 19.7113 5.82392 16.8137 5.6816C14.4868 5.56597 12.8196 5.90397 11.8924 6.17082L11.8121 6.59777C11.7943 6.68672 11.4377 8.75923 12.3917 12.0059C12.5521 12.5573 12.7483 13.0999 12.9622 13.6425L17.7231 13.4824L22.903 6.91799L22.8941 6.90909Z" fill="url(#paint0_linear_21_66)"/>
<defs>
<linearGradient id="paint0_linear_21_66" x1="0.228469" y1="31.8628" x2="33.7169" y2="-10.1039" gradientUnits="userSpaceOnUse">
<stop offset="0.352132" stop-color="#DFFFB6"/>
<stop offset="1" stop-color="white" stop-opacity="0"/>
</linearGradient>
</defs>
</svg>
