<svg width="211" height="61" viewBox="0 0 211 61" fill="none" xmlns="http://www.w3.org/2000/svg">
<path d="M102.314 36.3459C102.314 42.191 97.0978 45.8045 89.1742 45.8045C84.9325 45.8045 81.5045 45.0493 78.2203 43.4359C78.5924 41.2418 78.8119 39.0247 78.8772 36.8005C81.8695 38.513 85.259 39.4203 88.7113 39.4328C92.6743 39.4328 94.7185 38.5134 94.7185 36.6093C94.7843 34.7033 93.333 33.8497 87.3898 32.7315C80.5234 31.3562 77.4858 28.5309 77.4858 23.5398C77.4858 17.8932 82.7023 14.212 90.6259 14.212C93.9336 14.1767 97.2159 14.7896 100.285 16.0156L98.958 22.3562C96.3408 21.1768 93.4988 20.5721 90.6255 20.5833C86.9282 20.5833 85.0798 21.5027 85.0798 23.2815C85.0798 24.8596 86.3334 25.5153 92.1447 26.6966C99.5415 28.2689 102.314 31.0925 102.314 36.3459ZM119.7 38.834C116.729 38.834 114.35 37.2559 114.35 33.122V21.5586H121.882L123.283 14.8595H114.351V5.32922C111.784 6.05185 109.151 6.52243 106.492 6.73424L106.428 34.4436C106.428 41.9962 110.983 45.814 117.785 45.814C119.144 45.8229 120.5 45.6808 121.827 45.3902L123.311 38.302C122.146 38.6799 120.925 38.8598 119.7 38.834ZM128.299 45.3866H136.223V14.8712H128.299V45.3866ZM132.293 2.39069C131.708 2.37505 131.125 2.47488 130.579 2.6844C130.032 2.89392 129.533 3.20898 129.109 3.61142C128.686 4.01385 128.347 4.49569 128.112 5.02911C127.877 5.56254 127.75 6.137 127.739 6.71934C127.729 7.30168 127.834 7.88037 128.049 8.42202C128.265 8.96367 128.586 9.45755 128.994 9.87517C129.402 10.2928 129.889 10.6259 130.428 10.8552C130.966 11.0845 131.545 11.2055 132.13 11.2113C134.705 11.2266 136.597 9.42838 136.637 6.92767C136.669 6.34166 136.579 5.75544 136.375 5.20491C136.171 4.65437 135.856 4.15109 135.449 3.72588C135.042 3.30066 134.553 2.96245 134.01 2.73194C133.467 2.50143 132.883 2.38346 132.293 2.38527V2.39069ZM174.11 14.8771V40.6146C174.11 50.3352 167.506 57.0343 156.347 57.0343C152.347 57.0343 147.912 56.1537 144.937 54.4614C146.548 52.8608 148.003 51.1127 149.284 49.2404C151.302 49.9274 153.421 50.2778 155.554 50.2775C162.619 50.2775 166.185 46.3997 166.185 41.4759V40.4911C164.885 41.9853 163.271 43.1774 161.457 43.9832C159.643 44.789 157.673 45.189 155.686 45.1548C147.365 45.1548 141.093 38.9878 141.093 29.8529C141.093 20.8547 147.96 14.2215 156.347 14.2215C160.705 14.2215 164.468 15.7996 166.978 18.7544L167.241 14.8766L174.11 14.8771ZM166.25 29.8516C166.25 24.9913 162.685 21.3142 157.798 21.3142C152.91 21.3142 149.272 24.9886 149.272 29.8511C149.272 34.5784 152.839 38.2578 157.798 38.2578C158.915 38.2825 160.026 38.0818 161.063 37.6677C162.1 37.2536 163.042 36.6348 163.832 35.8486C164.622 35.0625 165.244 34.1252 165.659 33.0935C166.075 32.0617 166.276 30.9569 166.251 29.8457L166.25 29.8516ZM210.998 14.8717V40.6151C210.998 50.3357 204.394 57.0347 193.235 57.0347C189.235 57.0347 184.8 56.1541 181.827 54.4619C183.438 52.8612 184.893 51.1131 186.174 49.2409C188.191 49.9278 190.309 50.2782 192.442 50.2779C199.507 50.2779 203.074 46.4002 203.074 41.4763V40.4916C201.775 41.9865 200.16 43.1791 198.346 43.985C196.531 44.7909 194.561 45.1904 192.574 45.1552C184.255 45.1552 177.981 38.9882 177.981 29.8534C177.981 20.8552 184.848 14.2219 193.235 14.2219C197.593 14.2219 201.358 15.8001 203.867 18.7549L204.131 14.8771L210.998 14.8717ZM203.141 29.8462C203.141 24.9859 199.575 21.3088 194.688 21.3088C189.802 21.3088 186.159 24.985 186.159 29.8453C186.159 34.5725 189.724 38.2519 194.685 38.2519C195.802 38.278 196.913 38.0783 197.951 37.6651C198.988 37.2518 199.931 36.6336 200.721 35.8477C201.511 35.0619 202.133 34.1247 202.549 33.093C202.964 32.0613 203.165 30.9564 203.139 29.8453L203.141 29.8462Z" fill="#F4F9F7"/>
<path d="M45.1006 58.3325C44.796 58.4845 38.982 61.0431 28.6996 60.5618C23.3426 60.3084 18.6965 59.3204 15.396 58.4085L33.1934 37.7874C36.367 38.598 40.4545 39.358 45.1006 39.586C55.383 40.0927 61.197 37.5087 61.5016 37.3567L45.1006 58.3578V58.3325ZM18.5188 18.7116C15.5991 8.85703 16.7416 2.6251 16.8178 2.29577L0.264445 23.1702C0.213668 23.4995 -0.928817 29.7315 1.96548 39.586C3.48879 44.7033 5.54526 48.9846 7.22091 51.9739L23.0887 29.8581C21.5654 26.9701 19.839 23.1702 18.5188 18.7369V18.7116ZM59.7752 20.8902C57.4395 12.9863 53.7835 7.13438 52.2856 4.90507L37.5602 23.6262L40.3276 36.8754C41.9778 37.1034 43.6027 37.2554 45.2529 37.3567C46.0908 37.382 46.9286 37.4074 47.741 37.4074C55.713 37.4074 60.156 35.5327 60.6384 35.3047L61.7809 34.7981C61.8825 32.0621 61.7047 27.2235 59.8006 20.8649L59.7752 20.8902ZM50.5338 3.56242C48.0203 2.6251 41.4701 0.471787 33.2188 0.0664578C26.5924 -0.262872 21.8447 0.699784 19.2043 1.45978L18.9758 2.67576C18.925 2.92909 17.9095 8.83169 20.6261 18.0783C21.0831 19.6489 21.6416 21.1942 22.2509 22.7395L35.8084 22.2835L50.5592 3.58775L50.5338 3.56242Z" fill="url(#paint0_linear_110_66863)"/>
<path d="M18.5188 18.7122C15.5991 8.85765 16.7416 2.62572 16.8178 2.29639L0.264445 23.1708C0.213668 23.5001 -0.928817 29.7321 1.96548 39.5866C3.48879 44.7039 5.54526 48.9852 7.22091 51.9745L23.0887 29.8587C21.5654 26.9708 19.839 23.1708 18.5188 18.7375V18.7122Z" fill="url(#paint1_linear_110_66863)"/>
<path d="M45.1004 58.3312C44.7957 58.4832 38.9817 61.0419 28.6993 60.5605C23.3424 60.3072 18.6963 59.3192 15.3958 58.4072L33.1931 37.7861C36.3667 38.5968 40.4543 39.3568 45.1004 39.5848C55.3827 40.0914 61.1967 37.5075 61.5014 37.3555L45.1004 58.3566V58.3312Z" fill="url(#paint2_linear_110_66863)"/>
<defs>
<linearGradient id="paint0_linear_110_66863" x1="127.643" y1="-59.5364" x2="-5.37682" y2="73.4831" gradientUnits="userSpaceOnUse">
<stop offset="0.462148" stop-color="#F9F8F5"/>
<stop offset="0.617528" stop-color="#B2C565"/>
<stop offset="0.775403" stop-color="#002F0A"/>
</linearGradient>
<linearGradient id="paint1_linear_110_66863" x1="127.643" y1="-59.5359" x2="-5.37681" y2="73.4837" gradientUnits="userSpaceOnUse">
<stop offset="0.231761" stop-color="#F9F8F5"/>
<stop offset="0.896945" stop-color="#002F0A"/>
</linearGradient>
<linearGradient id="paint2_linear_110_66863" x1="270.284" y1="8.39817" x2="242.587" y2="126.494" gradientUnits="userSpaceOnUse">
<stop offset="0.231761" stop-color="#F9F8F5"/>
<stop offset="0.896945" stop-color="#002F0A"/>
</linearGradient>
</defs>
</svg>
